<svg width="150" height="150" viewBox="0 0 23 14" fill="none" xmlns="http://www.w3.org/2000/svg">
<path fill-rule="evenodd" clip-rule="evenodd" d="M5.53122 12.1792L0 13.5931L3.65915 7.70117L5.53122 12.1792Z" fill="#F2913D"/>
<path fill-rule="evenodd" clip-rule="evenodd" d="M6.20322 13.5929H0L7.3727 11.709L6.20322 13.5929Z" fill="#F07A3D"/>
<path fill-rule="evenodd" clip-rule="evenodd" d="M5.53124 12.1792L7.37269 11.7092L9.86241 7.70117H3.65918L5.53124 12.1792Z" fill="#F0801A"/>
<path fill-rule="evenodd" clip-rule="evenodd" d="M10.9824 5.89178H4.78027L7.37531 1.71312L9.01169 1.32715L10.9824 5.89178Z" fill="#3685C4"/>
<path fill-rule="evenodd" clip-rule="evenodd" d="M10.9834 5.89194L9.0127 1.32726L14.6425 0L10.9834 5.89194Z" fill="#086EAB"/>
<path fill-rule="evenodd" clip-rule="evenodd" d="M7.37598 1.71323L14.6421 0H8.43893L7.37598 1.71323Z" fill="#1A78BD"/>
<path fill-rule="evenodd" clip-rule="evenodd" d="M9.66687 13.5925H8.21973L11.8777 7.69922L9.66687 13.5925Z" fill="#6194AB"/>
<path fill-rule="evenodd" clip-rule="evenodd" d="M14.4229 13.5925H9.66797L11.8789 7.69922L14.4229 13.5925Z" fill="#7AA8B8"/>
<path fill-rule="evenodd" clip-rule="evenodd" d="M14.4229 13.5925L18.0821 7.69922H11.8789L14.4229 13.5925Z" fill="#BDD130"/>
<path fill-rule="evenodd" clip-rule="evenodd" d="M18.7986 0L12.9863 5.89327L16.6455 0H18.7986Z" fill="#E51759"/>
<path fill-rule="evenodd" clip-rule="evenodd" d="M19.1895 5.89202H12.9863L17.2597 1.56104L19.1895 5.89202Z" fill="#991F4A"/>
<path fill-rule="evenodd" clip-rule="evenodd" d="M19.1896 5.89194L22.8476 0H18.7975L17.2598 1.56094L19.1896 5.89194Z" fill="#BF1C54"/>
</svg>
