<svg width="23" height="14" fill="none" xmlns="http://www.w3.org/2000/svg"><path fill-rule="evenodd" clip-rule="evenodd" d="M5.531 12.18L0 13.592 3.66 7.7l1.87 4.48z" fill="#F2913D"/><path fill-rule="evenodd" clip-rule="evenodd" d="M6.203 13.593H0l7.373-1.884-1.17 1.884z" fill="#F07A3D"/><path fill-rule="evenodd" clip-rule="evenodd" d="M5.531 12.18l1.842-.47 2.49-4.01H3.658l1.872 4.478z" fill="#F0801A"/><path fill-rule="evenodd" clip-rule="evenodd" d="M10.982 5.892H4.78l2.595-4.179 1.637-.386 1.97 4.565z" fill="#3685C4"/><path fill-rule="evenodd" clip-rule="evenodd" d="M10.983 5.892l-1.97-4.565L14.643 0l-3.66 5.892z" fill="#086EAB"/><path fill-rule="evenodd" clip-rule="evenodd" d="M7.376 1.713L14.642 0H8.44L7.376 1.713z" fill="#1A78BD"/><path fill-rule="evenodd" clip-rule="evenodd" d="M9.667 13.592H8.22L11.878 7.7l-2.211 5.893z" fill="#6194AB"/><path fill-rule="evenodd" clip-rule="evenodd" d="M14.423 13.592H9.668l2.21-5.893 2.545 5.893z" fill="#7AA8B8"/><path fill-rule="evenodd" clip-rule="evenodd" d="M14.423 13.592l3.66-5.893h-6.204l2.544 5.893z" fill="#BDD130"/><path fill-rule="evenodd" clip-rule="evenodd" d="M18.799 0l-5.813 5.893L16.646 0h2.153z" fill="#E51759"/><path fill-rule="evenodd" clip-rule="evenodd" d="M19.19 5.892h-6.204l4.274-4.331 1.93 4.331z" fill="#991F4A"/><path fill-rule="evenodd" clip-rule="evenodd" d="M19.19 5.892L22.848 0h-4.05L17.26 1.56l1.93 4.332z" fill="#BF1C54"/></svg>